<svg width="59" height="59" viewBox="0 0 59 59" fill="none" xmlns="http://www.w3.org/2000/svg">
<circle cx="29.8261" cy="29.6174" r="28.8522" fill="#F4F7FE"/>
<g clip-path="url(#clip0_23_63)">
<path d="M26.8099 29.899C23.8438 29.899 21.4307 32.3122 21.4307 35.2785C21.4307 38.2456 23.8438 40.6595 26.8099 40.6595C29.777 40.6595 32.1909 38.2456 32.1909 35.2785C32.1909 32.3122 29.7769 29.899 26.8099 29.899ZM26.8099 39.4876C24.49 39.4876 22.6025 37.5994 22.6025 35.2785C22.6025 32.9585 24.49 31.0709 26.8099 31.0709C29.1308 31.0709 31.019 32.9584 31.019 35.2785C31.019 37.5994 29.1308 39.4876 26.8099 39.4876Z" fill="#7203FF"/>
<path d="M28.4957 34.6925H27.3959V32.8535C27.3959 32.5299 27.1335 32.2676 26.8099 32.2676C26.4864 32.2676 26.224 32.5299 26.224 32.8535V35.2785C26.224 35.6021 26.4864 35.8644 26.8099 35.8644H28.4957C28.8193 35.8644 29.0817 35.6021 29.0817 35.2785C29.0817 34.9549 28.8193 34.6925 28.4957 34.6925Z" fill="#7203FF"/>
<path d="M41.4905 16.9686H25.0494C24.0971 16.9686 23.3224 17.7434 23.3224 18.6957V28.3576C22.6238 28.711 21.986 29.1676 21.4283 29.7064H19.0536C18.73 29.7064 18.4676 29.9688 18.4676 30.2924C18.4676 30.616 18.73 30.8783 19.0536 30.8783H20.4333C20.1473 31.2915 19.9006 31.7337 19.6981 32.1995H16.9126C16.5891 32.1995 16.3267 32.4618 16.3267 32.7854C16.3267 33.109 16.5891 33.3714 16.9126 33.3714H19.2964C19.1878 33.7988 19.1152 34.2404 19.0812 34.6925H13.8035C13.4799 34.6925 13.2175 34.9549 13.2175 35.2785C13.2175 35.6021 13.4799 35.8644 13.8035 35.8644H19.0809C19.1148 36.3166 19.1879 36.7581 19.2964 37.1856H16.9126C16.5891 37.1856 16.3267 37.4479 16.3267 37.7715C16.3267 38.0951 16.5891 38.3575 16.9126 38.3575H19.697C19.8993 38.8233 20.1461 39.2654 20.4319 39.6786H19.0536C18.73 39.6786 18.4676 39.941 18.4676 40.2646C18.4676 40.5882 18.73 40.8505 19.0536 40.8505H21.4264C22.8217 42.1997 24.7205 43.0313 26.8099 43.0313C30.542 43.0313 33.6664 40.3803 34.3996 36.8626H41.4905C42.4428 36.8626 43.2175 36.0878 43.2175 35.1356V18.6957C43.2175 17.7434 42.4428 16.9686 41.4905 16.9686ZM31.1411 18.1405H35.3987V23.4531L33.604 22.2028C33.4027 22.0625 33.1353 22.0626 32.934 22.2029L31.1411 23.4527V18.1405H31.1411ZM26.8099 41.8595C23.1822 41.8595 20.2308 38.9072 20.2308 35.2785C20.2308 31.6506 23.1822 28.6991 26.8099 28.6991C30.4386 28.6991 33.3907 31.6506 33.3907 35.2785C33.3907 38.9072 30.4386 41.8595 26.8099 41.8595ZM42.0457 35.1356C42.0457 35.4417 41.7966 35.6907 41.4905 35.6907H34.5516C34.5588 35.5542 34.5626 35.4168 34.5626 35.2785C34.5626 31.0044 31.0848 27.5272 26.81 27.5272C26.0037 27.5272 25.2259 27.6511 24.4943 27.8806V18.6957C24.4943 18.3896 24.7433 18.1405 25.0494 18.1405H29.9694V24.5754C29.9694 24.7936 30.0907 24.9939 30.2842 25.0948C30.4777 25.1958 30.7112 25.1809 30.8904 25.056L33.2694 23.3977L35.6499 25.0561C35.75 25.1259 35.8672 25.1613 35.9849 25.1613C36.0776 25.1613 36.1708 25.1394 36.256 25.0948C36.4495 24.9938 36.5708 24.7936 36.5708 24.5754V18.1405H41.4907C41.7968 18.1405 42.0458 18.3895 42.0458 18.6957V35.1356H42.0457Z" fill="#7203FF"/>
<path d="M15.6587 30.8782H16.6569C16.9804 30.8782 17.2428 30.6159 17.2428 30.2923C17.2428 29.9687 16.9804 29.7064 16.6569 29.7064H15.6587C15.3351 29.7064 15.0728 29.9687 15.0728 30.2923C15.0728 30.6159 15.3351 30.8782 15.6587 30.8782Z" fill="#7203FF"/>
<path d="M16.6569 39.6787H15.6587C15.3351 39.6787 15.0728 39.941 15.0728 40.2646C15.0728 40.5883 15.3351 40.8506 15.6587 40.8506H16.6569C16.9804 40.8506 17.2428 40.5883 17.2428 40.2646C17.2428 39.941 16.9805 39.6787 16.6569 39.6787Z" fill="#7203FF"/>
</g>
<defs>
<clipPath id="clip0_23_63">
<rect width="30" height="30" fill="white" transform="translate(13.2175 15)"/>
</clipPath>
</defs>
</svg>
