<svg width="59" height="59" viewBox="0 0 59 59" fill="none" xmlns="http://www.w3.org/2000/svg">
<circle cx="29.8261" cy="29.4261" r="28.8522" fill="#F4F7FE"/>
<path d="M40.0613 28.6086V17.75C40.0613 16.4578 39.0098 15.4063 37.7175 15.4063C34.6823 15.4144 28.5432 15.4004 25.53 15.4063H18.9675C17.6753 15.4063 16.6238 16.4578 16.6238 17.75V36.5C16.6238 37.7923 17.6753 38.8438 18.9675 38.8438H29.8261C31.1254 41.0817 33.5426 42.5938 36.3113 42.5938C44.0059 42.5097 46.6128 32.4434 40.0613 28.6086ZM30.6863 16.3438V22.3743L28.6426 20.671C28.5556 20.5987 28.4492 20.5625 28.3425 20.5625C28.2359 20.5625 28.1294 20.5987 28.0425 20.671L25.9988 22.3743V16.3438H30.6863ZM18.9675 37.9063C18.1921 37.9063 17.5613 37.2755 17.5613 36.5V17.75C17.5613 16.9746 18.1921 16.3438 18.9675 16.3438H25.0613V23.375C25.0613 23.5568 25.1666 23.7225 25.3311 23.7994C25.496 23.8767 25.6905 23.8515 25.8301 23.7353L28.3425 21.6415L30.855 23.7353C30.9951 23.852 31.1904 23.8764 31.354 23.7994C31.5185 23.7225 31.6238 23.5568 31.6238 23.375V16.3438H37.7175C38.493 16.3438 39.1238 16.9746 39.1238 17.75V28.146C33.0757 25.6319 26.8498 31.8607 29.3635 37.9063H18.9675ZM36.3113 41.6563C32.6927 41.6563 29.7488 38.7124 29.7488 35.0938C30.1092 26.3877 42.5147 26.3903 42.8738 35.0938C42.8738 38.7124 39.9299 41.6563 36.3113 41.6563Z" fill="#231F20" stroke="#2EE62A"/>
<path d="M23.1863 30.875H20.8425C20.0671 30.875 19.4363 31.5058 19.4363 32.2812V34.625C19.4363 35.4005 20.0671 36.0312 20.8425 36.0312H23.1863C23.9617 36.0312 24.5925 35.4005 24.5925 34.625V32.2812C24.5925 31.5058 23.9617 30.875 23.1863 30.875ZM23.655 34.625C23.655 34.8837 23.4447 35.0938 23.1863 35.0938H20.8425C20.5841 35.0938 20.3738 34.8837 20.3738 34.625V32.2812C20.3738 32.0226 20.5841 31.8125 20.8425 31.8125H23.1863C23.4447 31.8125 23.655 32.0226 23.655 32.2812V34.625Z" fill="#2EE52A"/>
<path d="M40.3092 31.4147C40.0894 31.2778 39.8006 31.3447 39.6635 31.5644L35.8787 37.6362L32.8863 34.7559C32.4452 34.3338 31.7949 35.0038 32.2363 35.4316C32.2363 35.4316 35.6455 38.7128 35.6455 38.7128C35.8494 38.9185 36.2212 38.8719 36.3683 38.6231L40.4591 32.0606C40.5959 31.8409 40.5289 31.5516 40.3092 31.4147Z" fill="#2EE52A"/>
</svg>
